name ./resultDataOpenSim/trcMotMarkerGrf/sub10/grf-03-04.mot
datacolumns 19
datarows 12
range 1.04000000 1.08400000
endheader

                time	     ground_force_vx	     ground_force_vy	     ground_force_vz	     ground_force_px	     ground_force_py	     ground_force_pz	   l_ground_force_vx	   l_ground_force_vy	   l_ground_force_vz	   l_ground_force_px	   l_ground_force_py	   l_ground_force_pz	     ground_torque_x	     ground_torque_y	     ground_torque_z	   l_ground_torque_x	   l_ground_torque_y	   l_ground_torque_z	
          1.04000000	          0.00000000	          0.00000000	          0.00000000	          0.00000000	          0.00000000	          0.00000000	        -15.77996836	        359.41233845	         14.48611347	          0.01386509	         -0.05000000	         -0.08760127	          0.00000000	          0.00000000	          0.00000000	          0.00000000	         -1.29960022	          0.00000000	
          1.04400000	          0.00000000	          0.00000000	          0.00000000	          0.00000000	          0.00000000	          0.00000000	        -13.03553615	        356.39504591	         14.35503212	          0.01410395	         -0.05000000	         -0.08723431	          0.00000000	          0.00000000	          0.00000000	          0.00000000	         -1.38372037	          0.00000000	
          1.04800000	          0.00000000	          0.00000000	          0.00000000	          0.00000000	          0.00000000	          0.00000000	        -10.18845487	        354.52160871	         14.29130386	          0.01423519	         -0.05000000	         -0.08697247	          0.00000000	          0.00000000	          0.00000000	          0.00000000	         -1.47538020	          0.00000000	
          1.05200000	          0.00000000	          0.00000000	          0.00000000	          0.00000000	          0.00000000	          0.00000000	         -7.31146327	        353.85542949	         14.27515271	          0.01431599	         -0.05000000	         -0.08677128	          0.00000000	          0.00000000	          0.00000000	          0.00000000	         -1.57625964	          0.00000000	
          1.05600000	          0.00000000	          0.00000000	          0.00000000	          0.00000000	          0.00000000	          0.00000000	         -4.44730463	        354.43036265	         14.29675710	          0.01437170	         -0.05000000	         -0.08658727	          0.00000000	          0.00000000	          0.00000000	          0.00000000	         -1.68734279	          0.00000000	
          1.06000000	          0.00000000	          0.00000000	          0.00000000	          0.00000000	          0.00000000	          0.00000000	         -1.61538160	        356.20846419	         14.35286161	          0.01436981	         -0.05000000	         -0.08640630	          0.00000000	          0.00000000	          0.00000000	          0.00000000	         -1.80913802	          0.00000000	
          1.06400000	          0.00000000	          0.00000000	          0.00000000	          0.00000000	          0.00000000	          0.00000000	          1.17556824	        359.10823629	         14.43380590	          0.01425361	         -0.05000000	         -0.08624767	          0.00000000	          0.00000000	          0.00000000	          0.00000000	         -1.94193465	          0.00000000	
          1.06800000	          0.00000000	          0.00000000	          0.00000000	          0.00000000	          0.00000000	          0.00000000	          3.91980670	        363.06332511	         14.51552060	          0.01398346	         -0.05000000	         -0.08614026	          0.00000000	          0.00000000	          0.00000000	          0.00000000	         -2.08596395	          0.00000000	
          1.07200000	          0.00000000	          0.00000000	          0.00000000	          0.00000000	          0.00000000	          0.00000000	          6.61882134	        368.06997436	         14.56294341	          0.01356273	         -0.05000000	         -0.08608985	          0.00000000	          0.00000000	          0.00000000	          0.00000000	         -2.24141432	          0.00000000	
          1.07600000	          0.00000000	          0.00000000	          0.00000000	          0.00000000	          0.00000000	          0.00000000	          9.28635769	        374.19544572	         14.54394555	          0.01307305	         -0.05000000	         -0.08606339	          0.00000000	          0.00000000	          0.00000000	          0.00000000	         -2.40833420	          0.00000000	
          1.08000000	          0.00000000	          0.00000000	          0.00000000	          0.00000000	          0.00000000	          0.00000000	         11.94457015	        381.53642719	         14.44660399	          0.01268483	         -0.05000000	         -0.08599764	          0.00000000	          0.00000000	          0.00000000	          0.00000000	         -2.58649517	          0.00000000	
          1.08400000	          0.00000000	          0.00000000	          0.00000000	          0.00000000	          0.00000000	          0.00000000	         14.61750611	        390.16504302	         14.28120646	          0.01255836	         -0.05000000	         -0.08583030	          0.00000000	          0.00000000	          0.00000000	          0.00000000	         -2.77530154	          0.00000000	
